<svg xmlns="http://www.w3.org/2000/svg" xmlns:xlink="http://www.w3.org/1999/xlink" width="418" zoomAndPan="magnify" viewBox="0 0 313.5 313.500004" height="418" preserveAspectRatio="xMidYMid meet" version="1.0"><defs><g/><clipPath id="3da877271d"><path d="M 5.765625 24 L 306 24 L 306 312.71875 L 5.765625 312.71875 Z M 5.765625 24 " clip-rule="nonzero"/></clipPath><clipPath id="7bd224ed1d"><path d="M 61 113 L 312.777344 113 L 312.777344 255 L 61 255 Z M 61 113 " clip-rule="nonzero"/></clipPath></defs><path fill="#ffffff" d="M 0 0 L 313 0 L 313 313 L 0 313 Z M 0 0 " fill-opacity="1" fill-rule="nonzero"/><g clip-path="url(#3da877271d)"><path fill="#24232b" d="M 305.890625 53.242188 L 304.382812 59.140625 C 280.519531 152.375 231.679688 237.425781 163.148438 305.101562 L 155.785156 312.375 L 150.992188 307.203125 C 118.945312 272.605469 90.640625 234.421875 66.871094 193.714844 C 43.097656 153.003906 23.761719 109.601562 9.394531 64.714844 L 5.765625 53.375 L 11.8125 51.085938 C 104.796875 15.878906 207.210938 15.878906 300.191406 51.085938 Z M 305.890625 53.242188 " fill-opacity="1" fill-rule="nonzero"/></g><path fill="#ffffff" d="M 285.800781 104.839844 C 259.28125 178.929688 216.390625 246.382812 160.074219 301.996094 L 155.921875 306.09375 L 154.203125 304.238281 C 122.371094 269.875 94.261719 231.949219 70.648438 191.515625 C 47.035156 151.078125 27.828125 107.972656 13.5625 63.386719 L 11.195312 55.988281 L 13.363281 55.167969 C 78.074219 30.664062 147.402344 23.425781 214.851562 33.402344 C 216.75 35.351562 218.65625 37.296875 220.570312 39.242188 C 152.679688 28.0625 82.640625 34.609375 17.273438 58.925781 L 18.226562 61.898438 C 46.230469 149.402344 93.875 231.351562 156.085938 299.058594 L 156.628906 298.519531 C 213 242.855469 255.808594 175.21875 282.015625 100.921875 C 283.277344 102.226562 284.542969 103.527344 285.800781 104.839844 Z M 294.851562 58.96875 C 291.15625 73.160156 286.871094 87.152344 282.015625 100.921875 C 283.277344 102.226562 284.542969 103.527344 285.800781 104.839844 C 291.285156 89.511719 296.085938 73.910156 300.144531 58.058594 L 300.6875 55.941406 L 298.640625 55.167969 C 271.371094 44.84375 243.277344 37.605469 214.851562 33.402344 C 216.75 35.351562 218.65625 37.296875 220.570312 39.242188 C 245.742188 43.386719 270.621094 49.945312 294.851562 58.96875 Z M 294.851562 58.96875 " fill-opacity="1" fill-rule="nonzero"/><path fill="#b11e28" d="M 17.273438 58.925781 L 18.226562 61.898438 C 46.230469 149.402344 93.875 231.351562 156.085938 299.058594 L 156.628906 298.519531 C 223.441406 232.542969 271.207031 149.746094 294.851562 58.96875 C 205.261719 25.609375 106.871094 25.597656 17.273438 58.925781 Z M 17.273438 58.925781 " fill-opacity="1" fill-rule="nonzero"/><g clip-path="url(#7bd224ed1d)"><path fill="#24232b" d="M 311.957031 216.101562 C 311.554688 217.566406 310.574219 218.730469 309.039062 219.5625 C 305.925781 221.246094 302.683594 221.683594 300.320312 222 C 298.773438 222.207031 297.4375 222.382812 296.894531 222.8125 C 294.128906 224.992188 279.703125 234.667969 264.714844 238.660156 C 256.175781 240.929688 247.300781 242.546875 240.167969 243.847656 C 234.003906 244.972656 229.140625 245.859375 226.535156 246.765625 C 224.710938 247.398438 223.722656 248.574219 222.675781 249.820312 C 220.859375 251.980469 218.832031 254.390625 212.371094 254.390625 C 211.410156 254.390625 210.351562 254.335938 209.179688 254.222656 C 197.527344 253.074219 192.003906 250.546875 190.664062 249.847656 C 188.609375 250.703125 177.628906 254.867188 168.261719 250.789062 C 163.109375 248.546875 159.398438 244.195312 157.238281 237.859375 C 156.898438 236.863281 156.578125 235.851562 156.273438 234.832031 C 154.839844 231.523438 153.796875 227.710938 153.257812 223.679688 C 153.132812 222.742188 153.039062 221.8125 152.972656 220.886719 C 152.765625 219.773438 152.621094 218.933594 152.546875 218.480469 L 137.097656 212 C 136.851562 212.445312 136.441406 212.984375 135.8125 213.273438 C 135.390625 213.464844 134.703125 213.609375 133.816406 213.207031 C 133.40625 213.023438 131.832031 212.132812 128.550781 210.222656 C 119.269531 204.832031 99.007812 192.863281 95.902344 191.027344 C 94.910156 191.710938 92.132812 193.273438 87.570312 193.273438 C 81.582031 193.273438 77.816406 188.304688 76.738281 183.382812 C 76.585938 182.679688 76.472656 181.929688 76.410156 181.160156 C 76.277344 180.609375 76.164062 180.027344 76.070312 179.4375 C 75.535156 175.953125 75.863281 172.636719 76.9375 170.328125 L 75.933594 170.109375 C 75.722656 171.527344 75.027344 174.242188 72.839844 174.410156 C 71.59375 174.503906 70.683594 174.5 70.089844 174.472656 C 70.042969 174.484375 69.992188 174.496094 69.9375 174.5 C 69.832031 174.503906 69.730469 174.484375 69.636719 174.445312 C 69.410156 174.425781 69.28125 174.40625 69.265625 174.402344 C 69.167969 174.386719 69.078125 174.351562 68.996094 174.300781 L 63.835938 170.984375 C 63.675781 170.878906 63.5625 170.714844 63.527344 170.527344 C 63.519531 170.476562 62.597656 165.609375 62.140625 160.589844 C 61.277344 151.117188 62.738281 149.277344 63.914062 148.71875 C 65.804688 147.820312 69.214844 147.875 72.820312 147.933594 C 76.199219 147.988281 80.023438 148.050781 81.058594 147.089844 C 81.515625 146.671875 81.988281 145.386719 82.539062 143.902344 C 82.671875 143.539062 82.816406 143.152344 82.96875 142.75 C 83.03125 142.414062 83.308594 141.203125 84.277344 139.625 C 86.667969 134.492188 91.121094 128.042969 101.238281 124.332031 C 118.160156 118.125 162.722656 113.101562 175.910156 113.101562 C 176.230469 113.101562 176.527344 113.105469 176.808594 113.113281 C 188.753906 113.363281 200.574219 116.261719 203.167969 118.6875 C 205.421875 120.789062 212.761719 139.589844 214.003906 142.792969 L 214.828125 143.203125 C 216.535156 143.476562 238.210938 146.921875 259.988281 150.683594 C 305.859375 158.609375 307.457031 160.144531 308.054688 160.722656 C 308.9375 161.570312 309.632812 162.410156 310.152344 163.246094 C 310.160156 163.253906 310.164062 163.261719 310.167969 163.273438 C 311.703125 165.757812 311.648438 168.203125 310.019531 170.691406 C 309.058594 172.164062 308.449219 173.433594 308.15625 174.042969 C 308.058594 174.25 307.953125 174.46875 307.816406 174.632812 C 307.21875 176.644531 305.890625 180.464844 303.910156 182.632812 C 303.648438 182.976562 303.417969 183.449219 303.410156 183.644531 C 303.476562 183.710938 303.609375 183.816406 303.714844 183.898438 C 304.507812 184.535156 305.988281 185.71875 305.363281 188.371094 C 304.996094 189.925781 304.484375 190.785156 303.945312 191.691406 C 303.410156 192.585938 302.804688 193.601562 302.203125 195.574219 C 301.398438 198.210938 300.820312 200.097656 300.519531 201.082031 C 302.390625 201.40625 306.867188 202.503906 308.871094 205.839844 C 310.875 209.171875 312.808594 212.996094 311.957031 216.101562 Z M 311.957031 216.101562 " fill-opacity="1" fill-rule="nonzero"/></g><path fill="#9a1e28" d="M 308.324219 169.820312 C 308.261719 169.914062 308.207031 170.003906 308.148438 170.097656 C 308.316406 167.894531 308.070312 165.882812 307.429688 164.398438 C 307.957031 164.265625 308.371094 164.21875 308.636719 164.199219 C 309.695312 166.101562 309.578125 167.90625 308.324219 169.820312 Z M 128.242188 204.617188 C 127.996094 201.0625 127.367188 190.78125 127.722656 183.609375 C 127.804688 181.972656 127.816406 180.054688 127.832031 178.023438 C 127.832031 177.6875 127.835938 177.347656 127.835938 177.003906 C 118.484375 174.003906 109.199219 171.328125 100.976562 169.484375 C 99.878906 169.238281 98.8125 169.003906 97.777344 168.78125 C 97.785156 168.953125 97.792969 169.117188 97.804688 169.289062 C 98.089844 174.289062 98.484375 177.816406 98.796875 180.648438 C 99.207031 184.351562 99.464844 186.6875 99.082031 189.027344 Z M 85.976562 184.054688 L 97.445312 190.464844 C 97.53125 190.511719 97.601562 190.574219 97.65625 190.644531 C 103.242188 193.945312 119.316406 203.433594 127.859375 208.40625 L 128.253906 206.207031 L 85.816406 183.523438 C 85.878906 183.730469 85.933594 183.910156 85.976562 184.054688 Z M 97.726562 167.34375 C 98.875 167.589844 100.058594 167.847656 101.28125 168.121094 C 109.425781 169.945312 118.601562 172.585938 127.851562 175.542969 C 127.929688 168.742188 128.28125 161.21875 131.007812 156.207031 L 100.472656 152.132812 C 99.769531 153.496094 97.550781 158.523438 97.726562 167.34375 Z M 96.320312 167.046875 C 96.203125 158.953125 98.019531 154.027344 98.960938 152.027344 L 93.976562 151.816406 C 93.085938 152.664062 89.46875 156.792969 91.757812 166.136719 C 93.207031 166.414062 94.726562 166.714844 96.320312 167.046875 Z M 97.40625 180.804688 C 97.089844 177.953125 96.695312 174.40625 96.40625 169.371094 C 96.386719 169.070312 96.375 168.777344 96.363281 168.484375 C 71.425781 163.269531 64.941406 165.234375 63.667969 165.84375 C 63.949219 167.761719 64.210938 169.261719 64.324219 169.867188 L 68.792969 172.738281 C 69.089844 171.402344 70.15625 169.085938 73.941406 168.210938 C 79.371094 166.957031 83.453125 176.59375 85.1875 181.601562 L 97.769531 188.328125 C 98.019531 186.332031 97.785156 184.234375 97.40625 180.804688 Z M 209.53125 187.222656 C 207.175781 189.984375 204.898438 193.480469 202.988281 196.71875 C 204.378906 196.621094 205.769531 196.542969 207.160156 196.5 C 207.148438 195.15625 207.289062 193.730469 207.613281 192.265625 C 208.035156 190.371094 208.703125 188.667969 209.53125 187.222656 Z M 300.496094 181.527344 C 298.207031 181.015625 296.949219 177.777344 297.199219 173.65625 C 296.15625 175.472656 292.722656 180.101562 292.859375 179.742188 C 297.992188 165.949219 304.84375 163.351562 307.726562 162.886719 C 307.390625 162.472656 307.003906 162.050781 306.558594 161.621094 C 304.972656 160.210938 282.546875 155.964844 257.210938 151.601562 C 254.808594 151.1875 281.121094 159.40625 282.714844 163.355469 C 283.980469 166.5 281.550781 170.347656 281.289062 170.476562 C 281.1875 170.53125 281.082031 170.550781 280.976562 170.550781 C 280.71875 170.554688 282.25 168.222656 281.339844 163.628906 C 281.207031 162.941406 279.089844 160.230469 257.507812 153.9375 C 245.828125 150.527344 234.125 147.734375 234.003906 147.707031 C 233.988281 147.703125 233.96875 147.691406 233.953125 147.6875 C 227.21875 146.582031 220.667969 145.523438 214.617188 144.5625 L 200.652344 146.671875 C 218.65625 151.285156 268.308594 167.667969 263.304688 166.074219 C 219.296875 152.03125 194.628906 147.582031 194.628906 147.582031 L 134.585938 156.65625 C 134.519531 156.667969 134.453125 156.667969 134.386719 156.660156 L 132.519531 156.410156 C 129.644531 161.25 129.316406 169.273438 129.246094 175.988281 C 158.121094 185.316406 187.261719 197.511719 187.648438 197.675781 C 188.007812 197.828125 157.898438 186.738281 129.234375 177.453125 C 129.234375 177.648438 129.230469 177.84375 129.230469 178.035156 C 129.214844 180.082031 129.203125 182.015625 129.117188 183.675781 C 128.6875 192.34375 129.71875 205.644531 129.730469 205.777344 C 129.734375 205.832031 129.730469 205.886719 129.71875 205.941406 C 129.71875 205.945312 129.722656 205.949219 129.71875 205.953125 L 129.148438 209.15625 C 130.554688 209.972656 133.402344 211.621094 133.871094 211.828125 C 134.199219 211.980469 134.472656 212 134.703125 211.894531 C 135.160156 211.691406 135.453125 211.039062 135.53125 210.792969 C 135.644531 210.328125 136.875 205.363281 139.921875 200.585938 C 144.148438 193.96875 149.820312 190.984375 156.339844 191.953125 C 160.34375 192.550781 163.746094 193.875 166.609375 195.617188 C 166.691406 195.652344 166.761719 195.691406 166.824219 195.75 C 169.730469 197.550781 172.039062 199.789062 173.886719 202.121094 C 182.890625 199.449219 192.355469 197.550781 201.847656 196.800781 C 205.121094 190.152344 210.226562 182.195312 216.382812 180.816406 C 218.453125 180.351562 220.128906 180.464844 221.378906 181.152344 C 209.824219 168.609375 142.738281 157.15625 145.515625 157.519531 C 147.234375 157.746094 149.5625 158.089844 152.078125 158.496094 C 155.960938 159.121094 163.855469 160.460938 173.144531 162.417969 C 173.3125 162.457031 173.480469 162.492188 173.648438 162.527344 C 174.277344 162.632812 214.796875 169.335938 237.5625 172.046875 C 222.171875 170.753906 198.816406 168.882812 200.773438 169.511719 C 207.363281 171.617188 213.34375 173.980469 217.628906 176.535156 C 223.621094 180.105469 225.734375 183.738281 223.921875 187.335938 C 223.8125 190.261719 222.863281 193.058594 222.796875 193.25 C 222.671875 193.613281 222.273438 193.808594 221.910156 193.683594 C 221.835938 194.246094 221.742188 194.8125 221.617188 195.382812 C 221.492188 195.9375 221.339844 196.472656 221.175781 196.996094 C 227.617188 197.6875 233.917969 199.054688 239.945312 201.21875 C 258.570312 197.597656 269.324219 195.179688 272.007812 194.011719 C 277.699219 191.53125 296.648438 184.023438 301.523438 183.203125 C 301.65625 182.527344 302.109375 181.886719 302.289062 181.652344 C 302.304688 181.636719 302.316406 181.621094 302.328125 181.605469 C 302.453125 181.472656 302.570312 181.332031 302.6875 181.191406 C 302.164062 181.453125 301.636719 181.59375 301.113281 181.59375 C 300.910156 181.59375 300.703125 181.574219 300.496094 181.527344 Z M 213.101562 205.296875 C 212.757812 205.296875 212.417969 205.261719 212.078125 205.1875 C 209.058594 204.515625 207.207031 200.992188 207.160156 196.5 C 205.769531 196.542969 204.378906 196.621094 202.988281 196.71875 C 199.9375 201.898438 197.835938 206.414062 197.914062 206.191406 C 198.046875 205.796875 199.460938 201.644531 201.847656 196.800781 C 192.355469 197.550781 182.890625 199.449219 173.886719 202.121094 C 176.304688 205.171875 177.898438 208.394531 178.75 211.046875 C 183.28125 213.410156 190.976562 216.683594 193.175781 215.78125 C 194.089844 215.398438 194.421875 214.730469 194.882812 213.800781 C 195.84375 211.851562 197.160156 209.183594 204.628906 207.820312 L 206.304688 207.515625 C 219.457031 205.121094 230.671875 203.019531 239.945312 201.21875 C 233.917969 199.054688 227.617188 197.6875 221.175781 196.996094 C 219.621094 201.941406 216.363281 205.296875 213.101562 205.296875 Z M 216.691406 182.179688 C 216.480469 182.222656 216.273438 182.28125 216.070312 182.347656 C 216.429688 182.34375 216.792969 182.378906 217.152344 182.457031 C 219.089844 182.890625 220.609375 184.519531 221.4375 187.046875 C 221.796875 188.160156 222 189.398438 222.050781 190.699219 C 222.609375 188.1875 222.957031 184.648438 221.453125 182.972656 C 220.535156 181.945312 218.929688 181.675781 216.691406 182.179688 Z M 216.691406 182.179688 " fill-opacity="1" fill-rule="nonzero"/><path fill="#ffffff" d="M 206.457031 225.671875 C 206.457031 226.46875 206.457031 227.273438 206.457031 228.085938 C 200.246094 229.066406 195.769531 229.761719 194.808594 229.910156 L 181.867188 224.742188 C 181.828125 224.726562 181.789062 224.71875 181.75 224.707031 C 181.117188 221.46875 180.058594 216.183594 179.253906 212.875 C 182.183594 214.332031 188.617188 217.3125 192.230469 217.3125 C 192.804688 217.3125 193.304688 217.238281 193.710938 217.070312 C 195.117188 216.488281 195.632812 215.4375 196.136719 214.414062 C 197.011719 212.640625 198.105469 210.433594 204.882812 209.195312 L 206.457031 208.910156 C 206.457031 210.960938 206.457031 212.988281 206.457031 215.007812 C 205.019531 215.25 203.871094 215.453125 203.429688 215.535156 C 201.371094 215.925781 199.726562 222.136719 199.121094 224.796875 C 199.039062 225.128906 199.164062 225.464844 199.449219 225.683594 C 199.777344 225.929688 200.605469 226.035156 201.707031 226.035156 C 203.027344 226.035156 204.738281 225.886719 206.457031 225.671875 Z M 302.3125 184.886719 C 302.167969 184.769531 302.035156 184.660156 301.917969 184.546875 C 298.195312 185.003906 279.507812 192.269531 272.566406 195.292969 C 269.457031 196.648438 256.597656 199.382812 242.683594 202.113281 C 242.753906 202.921875 242.8125 203.726562 242.875 204.53125 C 253.636719 202.90625 264.945312 201.019531 268.402344 199.578125 C 275.566406 196.597656 291.480469 190.734375 291.640625 190.675781 C 291.886719 190.585938 292.167969 190.640625 292.359375 190.824219 C 292.554688 191.003906 292.628906 191.28125 292.554688 191.535156 L 291.617188 194.625 C 291.554688 194.828125 291.40625 194.992188 291.210938 195.066406 C 289.03125 195.941406 269.84375 203.605469 267.617188 203.960938 C 267.160156 204.03125 264.957031 204.390625 261.722656 204.917969 C 254.488281 206.09375 248.308594 207.097656 243.101562 207.9375 C 243.382812 212.652344 243.527344 217.328125 243.578125 221.996094 C 252.292969 220.480469 259.324219 219.152344 261.523438 218.464844 C 266.859375 216.796875 284.578125 207.332031 293.507812 202.480469 C 292.910156 202.566406 292.355469 202.613281 291.925781 202.617188 L 291.820312 202.617188 C 290.75 202.617188 290.097656 202.410156 289.769531 201.960938 C 289.53125 201.632812 288.800781 200.632812 293.582031 192.46875 C 293.671875 192.3125 293.820312 192.195312 293.996094 192.148438 L 299.085938 190.703125 C 299.730469 190.523438 300.414062 190.707031 300.875 191.195312 C 301.191406 191.527344 301.359375 191.964844 301.363281 192.410156 C 301.65625 191.804688 301.945312 191.324219 302.214844 190.871094 C 302.742188 189.988281 303.160156 189.289062 303.476562 187.945312 C 303.902344 186.152344 303.019531 185.449219 302.3125 184.886719 Z M 220.152344 211.535156 C 219.726562 211.535156 219.378906 211.351562 219.171875 211.019531 C 218.71875 210.285156 219.199219 209.082031 219.527344 208.425781 C 219.585938 208.308594 219.679688 208.210938 219.792969 208.140625 C 220.261719 207.863281 222.683594 207.488281 232.03125 206.128906 C 235.328125 205.652344 239.066406 205.109375 242.875 204.53125 C 242.8125 203.726562 242.753906 202.921875 242.683594 202.113281 C 228.832031 204.832031 213.933594 207.546875 206.554688 208.890625 L 206.457031 208.910156 C 206.457031 210.960938 206.457031 212.988281 206.457031 215.007812 C 210.210938 214.371094 216.003906 213.425781 216.773438 213.425781 C 217.167969 213.425781 217.496094 213.699219 217.605469 214.113281 C 217.996094 215.609375 215.164062 223.378906 213.617188 224.253906 C 212.976562 224.613281 209.707031 225.261719 206.457031 225.671875 C 206.457031 226.46875 206.457031 227.273438 206.457031 228.085938 C 216.707031 226.464844 231.710938 224.054688 243.578125 221.996094 C 243.527344 217.328125 243.382812 212.652344 243.101562 207.9375 C 227.511719 210.457031 220.625 211.535156 220.152344 211.535156 Z M 300.800781 180.164062 C 302.546875 180.550781 305.257812 177.519531 306.363281 172.554688 C 307.035156 169.558594 306.917969 166.621094 306.085938 164.835938 C 304.210938 165.59375 301.636719 167.25 299.019531 170.832031 L 298.996094 170.929688 C 297.890625 175.882812 299.058594 179.773438 300.800781 180.164062 Z M 192.71875 146.109375 C 181.632812 147.378906 167.632812 149.074219 155.054688 150.867188 C 144.3125 152.398438 138.222656 153.265625 134.773438 153.757812 C 134.277344 154.152344 133.824219 154.609375 133.410156 155.117188 L 134.476562 155.261719 L 193.59375 146.328125 C 193.296875 146.25 193.003906 146.179688 192.71875 146.109375 Z M 130.414062 154.367188 C 130.382812 154.378906 130.347656 154.386719 130.316406 154.390625 L 130.3125 154.375 C 130.3125 154.375 130.3125 154.375 130.308594 154.375 L 130.3125 154.390625 L 130.308594 154.375 C 130.257812 154.378906 130.203125 154.378906 130.152344 154.375 L 130.152344 154.394531 C 130.039062 154.382812 129.441406 154.296875 128.898438 153.570312 C 127.671875 151.945312 127.574219 148.40625 128.609375 143.058594 C 130.6875 132.320312 133.015625 127.429688 142.054688 124.9375 C 150.996094 122.46875 191.816406 117.234375 197.917969 118.640625 C 199.90625 119.101562 201.679688 120.40625 203.234375 122.128906 C 202.566406 120.824219 202.03125 119.925781 201.683594 119.601562 C 199.605469 117.65625 188.664062 114.664062 176.253906 114.402344 C 164.402344 114.144531 118.398438 119.230469 101.195312 125.539062 C 94.660156 127.933594 90.632812 131.449219 87.996094 135.015625 C 91.464844 132.4375 97.074219 129.972656 106.125 128.992188 C 127.207031 126.703125 130.714844 128.308594 131.042969 128.496094 C 131.230469 128.605469 131.359375 128.792969 131.386719 129.003906 C 131.417969 129.21875 131.347656 129.433594 131.199219 129.585938 C 131.1875 129.601562 128.433594 133.046875 127.429688 152.539062 C 127.410156 152.914062 127.101562 153.203125 126.730469 153.203125 C 126.71875 153.203125 126.710938 153.203125 126.699219 153.203125 L 115.5 152.730469 L 131.8125 154.90625 C 132.011719 154.621094 132.21875 154.347656 132.4375 154.089844 L 130.84375 154.316406 C 130.695312 154.335938 130.550781 154.359375 130.414062 154.367188 Z M 82.921875 182.488281 C 82.957031 182.488281 82.992188 182.488281 83.027344 182.484375 C 83.328125 182.464844 83.613281 182.34375 83.886719 182.140625 C 83.019531 179.660156 81.738281 176.5625 80.210938 174.054688 C 79.863281 175.019531 79.710938 176.199219 79.800781 177.402344 C 80.003906 180.203125 81.421875 182.488281 82.921875 182.488281 Z M 83.332031 186.5625 C 83.144531 186.589844 82.960938 186.605469 82.773438 186.605469 C 81.425781 186.605469 80.082031 185.859375 78.941406 184.464844 C 78.546875 183.988281 78.195312 183.441406 77.882812 182.855469 C 79.140625 186.253906 81.21875 188.515625 83.03125 188.238281 C 84.078125 188.078125 85 187.070312 85.605469 185.449219 L 85.519531 185.398438 C 84.882812 186.035156 84.136719 186.4375 83.332031 186.5625 Z M 127.703125 130.71875 C 127.84375 130.863281 127.910156 131.0625 127.894531 131.265625 L 126.789062 142.679688 C 127.6875 134.488281 128.90625 130.957031 129.625 129.515625 C 127.851562 129.175781 122.210938 128.648438 106.277344 130.378906 C 92.042969 131.921875 86.769531 137.238281 84.859375 140.4375 C 84.746094 140.6875 84.640625 140.9375 84.535156 141.179688 C 86.042969 138.929688 87.851562 137.789062 87.992188 137.707031 C 88.21875 137.5625 88.511719 137.566406 88.738281 137.714844 C 88.964844 137.859375 89.085938 138.121094 89.050781 138.390625 L 87.738281 148.542969 C 88.101562 148.589844 88.457031 148.644531 88.792969 148.707031 L 90.347656 136.8125 C 90.382812 136.53125 90.585938 136.300781 90.859375 136.230469 L 103.921875 132.738281 C 104.140625 132.675781 104.378906 132.730469 104.554688 132.878906 C 104.730469 133.027344 104.820312 133.25 104.800781 133.476562 L 103.140625 150.808594 L 105.5625 150.910156 L 108.425781 131.910156 C 108.476562 131.578125 108.753906 131.332031 109.085938 131.316406 L 127.164062 130.5 C 127.359375 130.492188 127.5625 130.570312 127.703125 130.71875 Z M 82.417969 150.046875 C 82.359375 150.058594 82.296875 150.0625 82.234375 150.058594 C 82.121094 150.046875 81.734375 149.984375 81.402344 149.5625 C 81.171875 149.269531 81.03125 148.875 80.964844 148.378906 C 79.285156 149.335938 76.011719 149.285156 72.273438 149.226562 C 68.984375 149.171875 65.582031 149.117188 63.988281 149.875 C 63.554688 150.082031 62.199219 151.449219 63.007812 160.351562 C 63.132812 161.746094 63.296875 163.132812 63.46875 164.402344 C 65.699219 163.539062 72.179688 162.527344 90.25 165.851562 C 88.359375 157.410156 91.109375 152.957031 92.535156 151.3125 C 90.871094 150.585938 86.9375 149.214844 82.417969 150.046875 Z M 212.382812 203.824219 C 215.433594 204.5 219.039062 200.5 220.25 195.078125 C 220.859375 192.34375 220.808594 189.644531 220.101562 187.476562 C 219.441406 185.441406 218.285156 184.140625 216.847656 183.824219 C 216.621094 183.769531 216.390625 183.746094 216.15625 183.746094 C 213.269531 183.746094 210.097656 187.550781 208.980469 192.570312 C 207.769531 197.992188 209.328125 203.144531 212.382812 203.824219 Z M 176.066406 220.457031 C 175.261719 214.425781 173.3125 208.921875 170.589844 204.960938 C 168.179688 201.464844 165.453125 199.578125 162.828125 199.578125 C 162.585938 199.578125 162.34375 199.597656 162.105469 199.628906 C 158.207031 200.152344 155.339844 204.769531 154.230469 211.277344 C 154.929688 212.554688 155.605469 213.84375 156.257812 215.140625 C 156.507812 213.175781 156.9375 211.335938 157.558594 209.714844 C 159.007812 205.921875 161.277344 203.683594 163.957031 203.402344 C 169.40625 202.832031 174.515625 210.480469 175.601562 220.820312 C 176.691406 231.15625 173.28125 239.703125 167.84375 240.273438 C 167.652344 240.292969 167.460938 240.304688 167.273438 240.304688 C 166.929688 240.304688 166.589844 240.269531 166.253906 240.207031 C 166.671875 241.546875 167.078125 242.898438 167.472656 244.257812 C 167.675781 244.25 167.878906 244.242188 168.078125 244.214844 C 174.128906 243.410156 177.710938 232.75 176.066406 220.457031 Z M 156.199219 222.855469 C 155.917969 220.179688 155.949219 217.5625 156.257812 215.140625 C 155.605469 213.84375 154.929688 212.554688 154.230469 211.277344 C 153.75 214.089844 153.59375 217.253906 153.835938 220.601562 C 154.421875 223.761719 155.527344 229.125 157.101562 234.371094 C 159.726562 240.371094 163.539062 244.265625 167.34375 244.265625 C 167.386719 244.265625 167.429688 244.257812 167.472656 244.257812 C 167.078125 242.898438 166.671875 241.546875 166.253906 240.207031 C 161.4375 239.3125 157.183594 232.175781 156.199219 222.855469 Z M 221.425781 231.085938 C 218.273438 231.566406 216.261719 232.992188 214.320312 234.375 C 212.132812 235.929688 210.042969 237.414062 206.691406 237.414062 C 205.886719 237.414062 205.007812 237.328125 204.039062 237.136719 C 195.757812 235.507812 181.878906 228.578125 181.292969 228.285156 C 181.238281 228.257812 181.191406 228.226562 181.148438 228.1875 C 181.144531 228.183594 181.140625 228.183594 181.136719 228.179688 C 181.003906 228.0625 180.792969 227.980469 180.734375 228 C 180.648438 228.035156 180.378906 228.398438 180.292969 229.546875 C 180.265625 229.882812 180.21875 230.265625 180.164062 230.703125 C 179.671875 234.746094 178.648438 243.15625 190.460938 248.328125 C 190.476562 248.335938 190.488281 248.347656 190.503906 248.355469 C 190.515625 248.359375 190.527344 248.363281 190.539062 248.367188 C 190.589844 248.398438 195.859375 251.453125 208.792969 252.726562 C 217.101562 253.546875 219.121094 251.140625 221.078125 248.816406 C 222.199219 247.480469 223.363281 246.101562 225.550781 245.339844 C 228.253906 244.398438 233.167969 243.503906 239.390625 242.367188 C 240.683594 242.132812 242.046875 241.882812 243.441406 241.625 C 243.523438 236.824219 243.597656 232.058594 243.605469 227.292969 C 234.144531 229.015625 225.148438 230.523438 221.425781 231.085938 Z M 307.144531 206.453125 C 305.269531 203.332031 300.523438 202.460938 299.304688 202.285156 C 296.890625 204.347656 278.53125 219.820312 267.496094 222.488281 C 261.785156 223.871094 252.492188 225.675781 243.605469 227.292969 C 243.597656 232.058594 243.523438 236.824219 243.441406 241.625 C 249.71875 240.460938 256.886719 239.050781 263.828125 237.203125 C 278.589844 233.273438 292.78125 223.757812 295.5 221.613281 C 296.347656 220.945312 297.785156 220.753906 299.605469 220.507812 C 301.992188 220.1875 304.957031 219.792969 307.847656 218.226562 C 309.050781 217.578125 309.78125 216.726562 310.082031 215.628906 C 310.792969 213.03125 308.996094 209.53125 307.144531 206.453125 Z M 167.195312 232.007812 C 167.269531 232.007812 167.34375 232.003906 167.417969 232 C 170.539062 231.773438 172.839844 226.902344 172.433594 221.367188 C 172.230469 218.570312 171.402344 216 170.105469 214.128906 C 168.949219 212.460938 167.554688 211.554688 166.164062 211.554688 C 166.085938 211.554688 166.011719 211.558594 165.929688 211.5625 C 164.464844 211.667969 163.132812 212.785156 162.175781 214.703125 C 161.164062 216.746094 160.714844 219.40625 160.917969 222.199219 C 161.3125 227.605469 164.152344 232.007812 167.195312 232.007812 Z M 167.195312 232.007812 " fill-opacity="1" fill-rule="nonzero"/><g fill="#c1ff72" fill-opacity="1"><g transform="translate(66.270742, 129.722503)"><g><path d="M -5.78125 -10.296875 C -5.800781 -10.304688 -5.820312 -10.316406 -5.84375 -10.328125 C -5.863281 -10.335938 -5.882812 -10.347656 -5.90625 -10.359375 C -6.164062 -10.554688 -6.191406 -10.796875 -5.984375 -11.078125 C -5.878906 -11.203125 -5.6875 -11.300781 -5.40625 -11.375 C -3.96875 -11.59375 -2.628906 -12.035156 -1.390625 -12.703125 C -0.148438 -13.367188 0.9375 -14.300781 1.875 -15.5 C 2.125 -15.832031 2.375 -16.234375 2.625 -16.703125 C 2.882812 -17.171875 3.078125 -17.648438 3.203125 -18.140625 C 3.328125 -18.640625 3.351562 -19.113281 3.28125 -19.5625 C 3.207031 -20.019531 2.96875 -20.40625 2.5625 -20.71875 C 2.125 -21.0625 1.644531 -21.265625 1.125 -21.328125 C 0.601562 -21.390625 0.0820312 -21.335938 -0.4375 -21.171875 C -0.644531 -21.109375 -0.960938 -21.019531 -1.390625 -20.90625 C -1.816406 -20.800781 -2.304688 -20.675781 -2.859375 -20.53125 C -3.421875 -20.382812 -4.003906 -20.238281 -4.609375 -20.09375 C -5.222656 -19.957031 -5.804688 -19.828125 -6.359375 -19.703125 C -6.910156 -19.578125 -7.410156 -19.460938 -7.859375 -19.359375 C -8.304688 -19.253906 -8.648438 -19.179688 -8.890625 -19.140625 C -10.265625 -18.753906 -11.503906 -18.5625 -12.609375 -18.5625 C -13.710938 -18.570312 -14.75 -18.726562 -15.71875 -19.03125 C -16.6875 -19.332031 -17.601562 -19.757812 -18.46875 -20.3125 C -19.34375 -20.863281 -20.238281 -21.488281 -21.15625 -22.1875 C -22.507812 -23.238281 -23.546875 -24.554688 -24.265625 -26.140625 C -24.992188 -27.734375 -25.351562 -29.46875 -25.34375 -31.34375 C -25.34375 -33.21875 -24.96875 -35.1875 -24.21875 -37.25 C -23.476562 -39.3125 -22.328125 -41.351562 -20.765625 -43.375 C -20.578125 -43.625 -20.265625 -43.972656 -19.828125 -44.421875 C -19.390625 -44.878906 -18.878906 -45.359375 -18.296875 -45.859375 C -17.722656 -46.359375 -17.085938 -46.832031 -16.390625 -47.28125 C -15.703125 -47.738281 -14.988281 -48.09375 -14.25 -48.34375 C -14.007812 -48.414062 -13.785156 -48.453125 -13.578125 -48.453125 C -13.378906 -48.460938 -13.140625 -48.378906 -12.859375 -48.203125 C -11.535156 -47.316406 -10.25 -46.429688 -9 -45.546875 C -7.75 -44.660156 -6.414062 -43.726562 -5 -42.75 C -4.738281 -42.550781 -4.601562 -42.363281 -4.59375 -42.1875 C -4.59375 -42.007812 -4.660156 -41.835938 -4.796875 -41.671875 C -4.921875 -41.503906 -5.066406 -41.410156 -5.234375 -41.390625 C -6.046875 -41.285156 -6.847656 -41.160156 -7.640625 -41.015625 C -8.441406 -40.867188 -9.207031 -40.660156 -9.9375 -40.390625 C -10.675781 -40.117188 -11.375 -39.765625 -12.03125 -39.328125 C -12.695312 -38.890625 -13.296875 -38.328125 -13.828125 -37.640625 C -14.148438 -37.210938 -14.4375 -36.765625 -14.6875 -36.296875 C -14.945312 -35.828125 -15.113281 -35.347656 -15.1875 -34.859375 C -15.257812 -34.378906 -15.210938 -33.910156 -15.046875 -33.453125 C -14.878906 -32.992188 -14.550781 -32.578125 -14.0625 -32.203125 C -13.539062 -31.796875 -13.035156 -31.507812 -12.546875 -31.34375 C -12.066406 -31.175781 -11.453125 -31.226562 -10.703125 -31.5 L -2.65625 -34.125 C -1.132812 -34.59375 0.226562 -34.863281 1.4375 -34.9375 C 2.644531 -35.019531 3.738281 -34.960938 4.71875 -34.765625 C 5.707031 -34.578125 6.59375 -34.28125 7.375 -33.875 C 8.164062 -33.476562 8.898438 -33.023438 9.578125 -32.515625 C 10.648438 -31.679688 11.523438 -30.71875 12.203125 -29.625 C 12.890625 -28.53125 13.398438 -27.363281 13.734375 -26.125 C 14.066406 -24.882812 14.234375 -23.601562 14.234375 -22.28125 C 14.242188 -20.957031 14.113281 -19.648438 13.84375 -18.359375 C 13.570312 -17.066406 13.164062 -15.820312 12.625 -14.625 C 12.082031 -13.4375 11.4375 -12.351562 10.6875 -11.375 C 10.101562 -10.613281 9.515625 -9.875 8.921875 -9.15625 C 8.335938 -8.4375 7.726562 -7.769531 7.09375 -7.15625 C 6.457031 -6.539062 5.785156 -5.988281 5.078125 -5.5 C 4.367188 -5.019531 3.601562 -4.628906 2.78125 -4.328125 Z M -5.78125 -10.296875 "/></g></g></g><g fill="#c1ff72" fill-opacity="1"><g transform="translate(81.652487, 107.695548)"><g><path d="M 23.21875 -15.296875 C 23.070312 -15.128906 22.890625 -14.890625 22.671875 -14.578125 C 22.460938 -14.273438 22.226562 -14.03125 21.96875 -13.84375 C 21.738281 -13.675781 21.5 -13.585938 21.25 -13.578125 C 21.007812 -13.566406 20.796875 -13.695312 20.609375 -13.96875 L 20.5 -14.109375 C 19.988281 -15.035156 19.550781 -15.816406 19.1875 -16.453125 C 18.820312 -17.085938 18.492188 -17.671875 18.203125 -18.203125 C 17.910156 -18.734375 17.613281 -19.253906 17.3125 -19.765625 C 17.007812 -20.285156 16.660156 -20.882812 16.265625 -21.5625 C 15.867188 -22.238281 15.394531 -23.050781 14.84375 -24 C 14.300781 -24.945312 13.628906 -26.128906 12.828125 -27.546875 C 12.328125 -28.410156 11.804688 -29.285156 11.265625 -30.171875 C 10.734375 -31.054688 10.210938 -31.851562 9.703125 -32.5625 C 9.359375 -33.039062 9.003906 -33.453125 8.640625 -33.796875 C 8.285156 -34.148438 7.910156 -34.410156 7.515625 -34.578125 C 7.117188 -34.742188 6.707031 -34.789062 6.28125 -34.71875 C 5.851562 -34.65625 5.394531 -34.445312 4.90625 -34.09375 C 4.539062 -33.832031 4.085938 -33.394531 3.546875 -32.78125 C 3.015625 -32.164062 2.5625 -31.445312 2.1875 -30.625 C 1.8125 -29.800781 1.59375 -28.914062 1.53125 -27.96875 C 1.46875 -27.019531 1.71875 -26.085938 2.28125 -25.171875 C 3.019531 -23.941406 3.648438 -22.878906 4.171875 -21.984375 C 4.691406 -21.097656 5.128906 -20.335938 5.484375 -19.703125 C 5.835938 -19.078125 6.125 -18.566406 6.34375 -18.171875 C 6.5625 -17.785156 6.753906 -17.457031 6.921875 -17.1875 C 6.941406 -17.113281 7.035156 -16.921875 7.203125 -16.609375 C 7.378906 -16.304688 7.585938 -15.941406 7.828125 -15.515625 C 8.078125 -15.085938 8.34375 -14.640625 8.625 -14.171875 C 8.90625 -13.703125 9.164062 -13.25 9.40625 -12.8125 C 9.644531 -12.382812 9.851562 -12.019531 10.03125 -11.71875 C 10.21875 -11.425781 10.332031 -11.25 10.375 -11.1875 C 10.46875 -11.0625 10.546875 -10.957031 10.609375 -10.875 C 10.679688 -10.800781 10.75 -10.726562 10.8125 -10.65625 C 10.894531 -10.519531 10.910156 -10.363281 10.859375 -10.1875 C 10.804688 -10.007812 10.613281 -9.722656 10.28125 -9.328125 L 5.515625 -2.640625 C 5.390625 -2.453125 5.210938 -2.207031 4.984375 -1.90625 C 4.765625 -1.613281 4.519531 -1.375 4.25 -1.1875 C 4.03125 -1.03125 3.796875 -0.941406 3.546875 -0.921875 C 3.304688 -0.910156 3.09375 -1.039062 2.90625 -1.3125 L -12.3125 -27.203125 C -12.644531 -27.753906 -12.84375 -28.148438 -12.90625 -28.390625 C -12.976562 -28.640625 -12.894531 -28.898438 -12.65625 -29.171875 C -11.414062 -30.492188 -10.132812 -31.84375 -8.8125 -33.21875 C -7.5 -34.601562 -6.285156 -36.039062 -5.171875 -37.53125 C -5.046875 -37.625 -4.957031 -37.65625 -4.90625 -37.625 C -4.851562 -37.601562 -4.800781 -37.554688 -4.75 -37.484375 C -4.726562 -37.453125 -4.695312 -37.398438 -4.65625 -37.328125 C -4.625 -37.265625 -4.546875 -37.101562 -4.421875 -36.84375 C -4.304688 -36.59375 -4.125 -36.21875 -3.875 -35.71875 C -3.625 -35.21875 -3.269531 -34.515625 -2.8125 -33.609375 C -2.164062 -35.023438 -1.503906 -36.269531 -0.828125 -37.34375 C -0.148438 -38.425781 0.535156 -39.378906 1.234375 -40.203125 C 1.929688 -41.023438 2.628906 -41.738281 3.328125 -42.34375 C 4.023438 -42.945312 4.691406 -43.476562 5.328125 -43.9375 C 7.566406 -45.539062 9.675781 -46.023438 11.65625 -45.390625 C 13.644531 -44.753906 15.613281 -43.082031 17.5625 -40.375 C 17.832031 -39.988281 18.101562 -39.585938 18.375 -39.171875 C 18.644531 -38.765625 18.910156 -38.320312 19.171875 -37.84375 L 25.390625 -26.84375 C 25.796875 -26.113281 26.191406 -25.460938 26.578125 -24.890625 C 26.960938 -24.316406 27.414062 -23.660156 27.9375 -22.921875 C 28.03125 -22.796875 28.109375 -22.691406 28.171875 -22.609375 C 28.242188 -22.523438 28.304688 -22.445312 28.359375 -22.375 C 28.453125 -22.238281 28.46875 -22.085938 28.40625 -21.921875 C 28.351562 -21.765625 28.164062 -21.472656 27.84375 -21.046875 Z M 23.21875 -15.296875 "/></g></g></g><g fill="#c1ff72" fill-opacity="1"><g transform="translate(108.059793, 87.933689)"><g><path d="M 30.015625 -15.75 C 30.015625 -15.675781 30.023438 -15.601562 30.046875 -15.53125 C 30.066406 -15.46875 30.085938 -15.40625 30.109375 -15.34375 C 30.253906 -14.882812 30.453125 -14.523438 30.703125 -14.265625 C 30.953125 -14.003906 31.195312 -13.800781 31.4375 -13.65625 C 31.675781 -13.519531 31.882812 -13.414062 32.0625 -13.34375 C 32.25 -13.28125 32.359375 -13.195312 32.390625 -13.09375 C 32.472656 -12.832031 32.269531 -12.503906 31.78125 -12.109375 L 25.3125 -6.515625 C 25.289062 -6.492188 25.226562 -6.46875 25.125 -6.4375 C 24.96875 -6.382812 24.773438 -6.460938 24.546875 -6.671875 C 24.328125 -6.878906 24.082031 -7.160156 23.8125 -7.515625 C 23.539062 -7.878906 23.269531 -8.265625 23 -8.671875 C 22.726562 -9.085938 22.488281 -9.476562 22.28125 -9.84375 C 21.539062 -8.113281 20.59375 -6.71875 19.4375 -5.65625 C 18.28125 -4.59375 17.035156 -3.847656 15.703125 -3.421875 C 14.140625 -2.929688 12.503906 -2.785156 10.796875 -2.984375 C 9.097656 -3.191406 7.46875 -3.75 5.90625 -4.65625 C 4.34375 -5.570312 2.925781 -6.816406 1.65625 -8.390625 C 0.394531 -9.972656 -0.59375 -11.882812 -1.3125 -14.125 C -2.15625 -16.78125 -2.546875 -19.328125 -2.484375 -21.765625 C -2.421875 -24.203125 -1.976562 -26.421875 -1.15625 -28.421875 C -0.332031 -30.421875 0.816406 -32.132812 2.296875 -33.5625 C 3.773438 -34.988281 5.5 -36.015625 7.46875 -36.640625 C 8.863281 -37.085938 10.269531 -37.222656 11.6875 -37.046875 C 13.101562 -36.878906 14.519531 -36.53125 15.9375 -36 C 15.863281 -36.59375 15.78125 -37.0625 15.6875 -37.40625 C 15.601562 -37.75 15.5625 -38.019531 15.5625 -38.21875 C 15.570312 -38.425781 15.660156 -38.585938 15.828125 -38.703125 C 15.992188 -38.828125 16.285156 -38.976562 16.703125 -39.15625 C 17.972656 -39.769531 19.25 -40.367188 20.53125 -40.953125 C 21.8125 -41.546875 23.164062 -42.109375 24.59375 -42.640625 Z M 18.3125 -23.59375 C 18.15625 -24.71875 17.960938 -25.757812 17.734375 -26.71875 C 17.503906 -27.675781 17.285156 -28.546875 17.078125 -29.328125 C 16.703125 -29.460938 16.300781 -29.597656 15.875 -29.734375 C 15.457031 -29.867188 15.015625 -29.976562 14.546875 -30.0625 C 14.078125 -30.144531 13.601562 -30.179688 13.125 -30.171875 C 12.644531 -30.160156 12.164062 -30.078125 11.6875 -29.921875 C 10.675781 -29.597656 9.9375 -29.003906 9.46875 -28.140625 C 9.007812 -27.285156 8.71875 -26.316406 8.59375 -25.234375 C 8.476562 -24.148438 8.503906 -23.046875 8.671875 -21.921875 C 8.835938 -20.804688 9.050781 -19.84375 9.3125 -19.03125 C 10.25 -16.09375 11.316406 -14.0625 12.515625 -12.9375 C 13.722656 -11.820312 15.019531 -11.488281 16.40625 -11.9375 C 16.957031 -12.113281 17.523438 -12.46875 18.109375 -13 C 18.691406 -13.539062 19.25 -14.203125 19.78125 -14.984375 Z M 18.3125 -23.59375 "/></g></g></g><g fill="#c1ff72" fill-opacity="1"><g transform="translate(137.132841, 77.536126)"><g><path d="M 16.640625 -20.375 C 16.515625 -18.5 16.40625 -16.972656 16.3125 -15.796875 C 16.226562 -14.628906 16.15625 -13.679688 16.09375 -12.953125 C 16.03125 -12.222656 15.976562 -11.644531 15.9375 -11.21875 C 15.90625 -10.800781 15.878906 -10.410156 15.859375 -10.046875 C 16.304688 -8.878906 16.960938 -7.925781 17.828125 -7.1875 C 18.703125 -6.445312 19.753906 -6.078125 20.984375 -6.078125 C 22.054688 -6.078125 23 -6.410156 23.8125 -7.078125 C 24.632812 -7.742188 25.3125 -8.613281 25.84375 -9.6875 C 26.382812 -10.757812 26.789062 -11.957031 27.0625 -13.28125 C 27.34375 -14.613281 27.484375 -15.929688 27.484375 -17.234375 C 27.492188 -18.304688 27.40625 -19.300781 27.21875 -20.21875 C 27.03125 -21.132812 26.75 -21.925781 26.375 -22.59375 C 26.007812 -23.269531 25.550781 -23.800781 25 -24.1875 C 24.457031 -24.570312 23.804688 -24.765625 23.046875 -24.765625 C 22.421875 -24.765625 21.796875 -24.644531 21.171875 -24.40625 C 20.554688 -24.164062 19.960938 -23.859375 19.390625 -23.484375 C 18.828125 -23.109375 18.316406 -22.679688 17.859375 -22.203125 C 17.398438 -21.722656 17.023438 -21.257812 16.734375 -20.8125 Z M 17.25 -28.9375 C 18.894531 -30.039062 20.613281 -30.921875 22.40625 -31.578125 C 24.207031 -32.234375 26.082031 -32.5625 28.03125 -32.5625 C 29.863281 -32.550781 31.445312 -32.171875 32.78125 -31.421875 C 34.113281 -30.671875 35.21875 -29.65625 36.09375 -28.375 C 36.96875 -27.09375 37.609375 -25.625 38.015625 -23.96875 C 38.429688 -22.3125 38.632812 -20.570312 38.625 -18.75 C 38.625 -17.175781 38.460938 -15.578125 38.140625 -13.953125 C 37.828125 -12.335938 37.363281 -10.773438 36.75 -9.265625 C 36.144531 -7.753906 35.394531 -6.335938 34.5 -5.015625 C 33.601562 -3.691406 32.570312 -2.535156 31.40625 -1.546875 C 30.238281 -0.566406 28.941406 0.195312 27.515625 0.75 C 26.097656 1.3125 24.5625 1.585938 22.90625 1.578125 C 21.4375 1.578125 20.035156 1.28125 18.703125 0.6875 C 17.367188 0.101562 16.117188 -0.65625 14.953125 -1.59375 C 14.953125 -1.488281 14.925781 -1.128906 14.875 -0.515625 C 14.820312 0.0859375 14.753906 0.828125 14.671875 1.703125 C 14.585938 2.585938 14.5 3.53125 14.40625 4.53125 C 14.3125 5.539062 14.222656 6.484375 14.140625 7.359375 C 14.054688 8.234375 13.988281 8.976562 13.9375 9.59375 C 13.882812 10.207031 13.859375 10.566406 13.859375 10.671875 C 13.859375 10.828125 13.863281 10.957031 13.875 11.0625 C 13.882812 11.164062 13.890625 11.265625 13.890625 11.359375 C 13.890625 11.515625 13.816406 11.644531 13.671875 11.75 C 13.523438 11.863281 13.195312 11.984375 12.6875 12.109375 L 4.984375 14.0625 C 4.765625 14.113281 4.476562 14.203125 4.125 14.328125 C 3.78125 14.460938 3.441406 14.53125 3.109375 14.53125 C 2.835938 14.53125 2.597656 14.457031 2.390625 14.3125 C 2.191406 14.164062 2.09375 13.910156 2.09375 13.546875 L 5.78125 -29.265625 C 5.851562 -29.910156 5.929688 -30.351562 6.015625 -30.59375 C 6.109375 -30.84375 6.328125 -31.003906 6.671875 -31.078125 C 8.453125 -31.421875 10.273438 -31.769531 12.140625 -32.125 C 14.015625 -32.476562 15.835938 -32.9375 17.609375 -33.5 C 17.765625 -33.5 17.859375 -33.472656 17.890625 -33.421875 C 17.921875 -33.378906 17.9375 -33.3125 17.9375 -33.21875 C 17.9375 -33.175781 17.929688 -33.113281 17.921875 -33.03125 C 17.910156 -32.957031 17.878906 -32.78125 17.828125 -32.5 C 17.785156 -32.226562 17.71875 -31.816406 17.625 -31.265625 C 17.539062 -30.710938 17.414062 -29.9375 17.25 -28.9375 Z M 17.25 -28.9375 "/></g></g></g><g fill="#c1ff72" fill-opacity="1"><g transform="translate(171.703261, 78.577354)"><g/></g></g><g fill="#c1ff72" fill-opacity="1"><g transform="translate(181.220369, 79.526717)"><g><path d="M 8.21875 -12.046875 C 9.207031 -14.390625 10.570312 -16.40625 12.3125 -18.09375 C 14.050781 -19.789062 16.007812 -21.078125 18.1875 -21.953125 C 20.363281 -22.835938 22.679688 -23.28125 25.140625 -23.28125 C 27.609375 -23.28125 30.078125 -22.765625 32.546875 -21.734375 C 34.210938 -21.023438 35.582031 -20.285156 36.65625 -19.515625 C 37.738281 -18.753906 38.585938 -18.050781 39.203125 -17.40625 C 39.816406 -16.757812 40.238281 -16.21875 40.46875 -15.78125 C 40.695312 -15.351562 40.8125 -15.128906 40.8125 -15.109375 C 40.757812 -15.003906 40.585938 -14.722656 40.296875 -14.265625 C 40.015625 -13.804688 39.6875 -13.269531 39.3125 -12.65625 C 38.9375 -12.039062 38.5625 -11.398438 38.1875 -10.734375 C 37.820312 -10.078125 37.53125 -9.492188 37.3125 -8.984375 C 37.28125 -8.898438 37.210938 -8.816406 37.109375 -8.734375 C 37.015625 -8.660156 36.847656 -8.671875 36.609375 -8.765625 C 36.398438 -8.859375 36.117188 -9.0625 35.765625 -9.375 C 35.421875 -9.695312 34.984375 -10.078125 34.453125 -10.515625 C 33.929688 -10.953125 33.304688 -11.410156 32.578125 -11.890625 C 31.859375 -12.378906 31.023438 -12.820312 30.078125 -13.21875 C 28.898438 -13.71875 27.742188 -13.957031 26.609375 -13.9375 C 25.472656 -13.914062 24.40625 -13.671875 23.40625 -13.203125 C 22.414062 -12.742188 21.519531 -12.082031 20.71875 -11.21875 C 19.914062 -10.351562 19.265625 -9.320312 18.765625 -8.125 C 18.242188 -6.882812 17.992188 -5.75 18.015625 -4.71875 C 18.046875 -3.6875 18.265625 -2.757812 18.671875 -1.9375 C 19.078125 -1.113281 19.648438 -0.398438 20.390625 0.203125 C 21.140625 0.804688 21.984375 1.304688 22.921875 1.703125 C 23.992188 2.160156 25.140625 2.46875 26.359375 2.625 C 27.585938 2.78125 28.804688 2.800781 30.015625 2.6875 C 30.046875 2.675781 30.113281 2.691406 30.21875 2.734375 C 30.320312 2.773438 30.375 2.847656 30.375 2.953125 C 30.375 3.054688 30.320312 3.234375 30.21875 3.484375 C 29.976562 4.066406 29.6875 4.765625 29.34375 5.578125 C 29 6.390625 28.664062 7.171875 28.34375 7.921875 C 28.019531 8.671875 27.738281 9.300781 27.5 9.8125 C 27.269531 10.332031 27.148438 10.585938 27.140625 10.578125 C 26.304688 10.722656 25.453125 10.773438 24.578125 10.734375 C 23.710938 10.691406 22.84375 10.582031 21.96875 10.40625 C 21.101562 10.226562 20.253906 9.992188 19.421875 9.703125 C 18.585938 9.421875 17.789062 9.117188 17.03125 8.796875 C 14.9375 7.910156 13.128906 6.738281 11.609375 5.28125 C 10.085938 3.820312 8.925781 2.171875 8.125 0.328125 C 7.320312 -1.503906 6.90625 -3.476562 6.875 -5.59375 C 6.851562 -7.707031 7.300781 -9.859375 8.21875 -12.046875 Z M 8.21875 -12.046875 "/></g></g></g><g fill="#c1ff72" fill-opacity="1"><g transform="translate(205.355381, 88.460997)"><g><path d="M 29.6875 16.328125 C 29.632812 16.359375 29.585938 16.398438 29.546875 16.453125 C 29.503906 16.503906 29.460938 16.554688 29.421875 16.609375 C 29.117188 16.992188 28.925781 17.359375 28.84375 17.703125 C 28.757812 18.054688 28.722656 18.375 28.734375 18.65625 C 28.753906 18.9375 28.785156 19.171875 28.828125 19.359375 C 28.878906 19.554688 28.875 19.695312 28.8125 19.78125 C 28.644531 19.988281 28.253906 19.992188 27.640625 19.796875 L 19.421875 17.5 C 19.378906 17.507812 19.316406 17.476562 19.234375 17.40625 C 19.109375 17.300781 19.070312 17.09375 19.125 16.78125 C 19.175781 16.46875 19.273438 16.101562 19.421875 15.6875 C 19.578125 15.269531 19.75 14.832031 19.9375 14.375 C 20.132812 13.925781 20.328125 13.515625 20.515625 13.140625 C 18.660156 13.484375 16.972656 13.46875 15.453125 13.09375 C 13.929688 12.71875 12.617188 12.085938 11.515625 11.203125 C 10.242188 10.179688 9.222656 8.898438 8.453125 7.359375 C 7.691406 5.816406 7.257812 4.144531 7.15625 2.34375 C 7.050781 0.550781 7.304688 -1.304688 7.921875 -3.234375 C 8.535156 -5.171875 9.578125 -7.0625 11.046875 -8.90625 C 12.796875 -11.070312 14.707031 -12.800781 16.78125 -14.09375 C 18.851562 -15.382812 20.945312 -16.238281 23.0625 -16.65625 C 25.175781 -17.082031 27.234375 -17.070312 29.234375 -16.625 C 31.242188 -16.1875 33.054688 -15.320312 34.671875 -14.03125 C 35.816406 -13.101562 36.707031 -12 37.34375 -10.71875 C 37.988281 -9.445312 38.476562 -8.078125 38.8125 -6.609375 C 39.269531 -6.984375 39.613281 -7.300781 39.84375 -7.5625 C 40.082031 -7.832031 40.285156 -8.019531 40.453125 -8.125 C 40.628906 -8.226562 40.8125 -8.242188 41 -8.171875 C 41.195312 -8.109375 41.488281 -7.953125 41.875 -7.703125 C 43.09375 -6.984375 44.296875 -6.25 45.484375 -5.5 C 46.679688 -4.757812 47.894531 -3.941406 49.125 -3.046875 Z M 29.796875 2.234375 C 30.640625 1.492188 31.394531 0.757812 32.0625 0.03125 C 32.738281 -0.6875 33.347656 -1.351562 33.890625 -1.96875 C 33.785156 -2.34375 33.675781 -2.742188 33.5625 -3.171875 C 33.445312 -3.597656 33.289062 -4.03125 33.09375 -4.46875 C 32.90625 -4.90625 32.675781 -5.316406 32.40625 -5.703125 C 32.132812 -6.097656 31.800781 -6.457031 31.40625 -6.78125 C 30.582031 -7.4375 29.679688 -7.71875 28.703125 -7.625 C 27.722656 -7.539062 26.75 -7.25 25.78125 -6.75 C 24.8125 -6.257812 23.90625 -5.632812 23.0625 -4.875 C 22.21875 -4.125 21.53125 -3.414062 21 -2.75 C 19.070312 -0.34375 17.972656 1.664062 17.703125 3.28125 C 17.441406 4.90625 17.875 6.175781 19 7.09375 C 19.457031 7.457031 20.070312 7.734375 20.84375 7.921875 C 21.625 8.117188 22.484375 8.21875 23.421875 8.21875 Z M 29.796875 2.234375 "/></g></g></g><g fill="#c1ff72" fill-opacity="1"><g transform="translate(229.963546, 108.244947)"><g><path d="M 35.4375 8.03125 C 35.226562 7.675781 34.988281 7.28125 34.71875 6.84375 C 34.457031 6.40625 34.160156 5.960938 33.828125 5.515625 C 33.328125 4.816406 32.75 4.148438 32.09375 3.515625 C 31.445312 2.890625 30.726562 2.394531 29.9375 2.03125 C 29.144531 1.675781 28.28125 1.5 27.34375 1.5 C 26.414062 1.5 25.429688 1.789062 24.390625 2.375 C 23.140625 3.125 22.117188 3.738281 21.328125 4.21875 C 20.535156 4.695312 19.882812 5.09375 19.375 5.40625 C 18.875 5.71875 18.46875 5.972656 18.15625 6.171875 C 17.84375 6.367188 17.554688 6.550781 17.296875 6.71875 C 17.242188 6.769531 17.0625 6.882812 16.75 7.0625 C 16.445312 7.25 16.09375 7.457031 15.6875 7.6875 C 15.28125 7.914062 14.835938 8.171875 14.359375 8.453125 C 13.890625 8.734375 13.445312 8.988281 13.03125 9.21875 C 12.625 9.445312 12.269531 9.65625 11.96875 9.84375 C 11.675781 10.03125 11.492188 10.144531 11.421875 10.1875 C 11.296875 10.28125 11.191406 10.363281 11.109375 10.4375 C 11.023438 10.507812 10.945312 10.570312 10.875 10.625 C 10.75 10.71875 10.597656 10.734375 10.421875 10.671875 C 10.253906 10.617188 9.96875 10.4375 9.5625 10.125 L 2.75 5.515625 C 2.550781 5.378906 2.300781 5.203125 2 4.984375 C 1.707031 4.773438 1.460938 4.535156 1.265625 4.265625 C 1.097656 4.035156 1.007812 3.800781 1 3.5625 C 0.988281 3.320312 1.117188 3.101562 1.390625 2.90625 L 26.234375 -12.21875 C 26.785156 -12.550781 27.179688 -12.75 27.421875 -12.8125 C 27.671875 -12.882812 27.929688 -12.804688 28.203125 -12.578125 C 29.546875 -11.347656 30.921875 -10.078125 32.328125 -8.765625 C 33.734375 -7.460938 35.191406 -6.265625 36.703125 -5.171875 C 36.785156 -5.046875 36.816406 -4.957031 36.796875 -4.90625 C 36.785156 -4.851562 36.738281 -4.796875 36.65625 -4.734375 C 36.625 -4.710938 36.570312 -4.679688 36.5 -4.640625 C 36.4375 -4.597656 36.273438 -4.515625 36.015625 -4.390625 C 35.765625 -4.273438 35.390625 -4.085938 34.890625 -3.828125 C 34.398438 -3.566406 33.710938 -3.203125 32.828125 -2.734375 C 33.910156 -2.441406 35.007812 -2.03125 36.125 -1.5 C 37.238281 -0.96875 38.285156 -0.390625 39.265625 0.234375 C 40.242188 0.867188 41.132812 1.519531 41.9375 2.1875 C 42.738281 2.863281 43.363281 3.507812 43.8125 4.125 Z M 35.4375 8.03125 "/></g></g></g></svg>